<?xml version="1.0" standalone="no"?>
<!DOCTYPE svg PUBLIC "-//W3C//DTD SVG 20010904//EN"
 "http://www.w3.org/TR/2001/REC-SVG-20010904/DTD/svg10.dtd">
<svg version="1.0" xmlns="http://www.w3.org/2000/svg"
 width="700.000000pt" height="700.000000pt" viewBox="0 0 700.000000 700.000000"
 preserveAspectRatio="xMidYMid meet">
<metadata>
Created by potrace 1.14, written by Peter Selinger 2001-2017
</metadata>
<g transform="translate(0.000000,700.000000) scale(0.100000,-0.100000)"
fill="#000000" stroke="none">
<path d="M3385 6759 c-70 -15 -158 -51 -215 -86 -69 -44 -2762 -2731 -2824
-2818 -81 -113 -117 -241 -111 -385 4 -98 23 -166 72 -265 31 -62 73 -107 362
-398 349 -352 406 -403 504 -446 350 -158 751 32 858 407 14 51 18 90 15 176
-5 188 -58 299 -219 464 l-91 93 882 882 882 882 882 -883 883 -882 -882 -882
-882 -882 -93 90 c-108 105 -166 147 -251 180 -84 33 -97 36 -212 40 -225 8
-411 -87 -536 -274 -123 -185 -137 -413 -37 -622 40 -83 49 -93 394 -440 241
-242 370 -365 406 -385 206 -117 417 -123 622 -18 66 34 164 129 1467 1432
1301 1302 1398 1401 1431 1466 105 206 99 426 -15 620 -20 33 -499 520 -1415
1436 -1309 1311 -1389 1389 -1461 1427 -42 23 -104 49 -136 58 -68 18 -220 25
-280 13z"/>
</g>
</svg>
