<svg width="32" height="32" viewBox="0 0 32 32" fill="none" xmlns="http://www.w3.org/2000/svg">
<path opacity="0.15" fill-rule="evenodd" clip-rule="evenodd" d="M4.8 24C4.8 21.0296 5.98 18.1808 8.0804 16.0804C10.1808 13.98 13.0296 12.8 16 12.8C18.9704 12.8 21.8192 13.98 23.9196 16.0804C26.02 18.1808 27.2 21.0296 27.2 24H32C32 19.7565 30.3143 15.6869 27.3137 12.6863C24.3131 9.68571 20.2435 8 16 8C11.7565 8 7.68687 9.68571 4.68629 12.6863C1.68571 15.6869 0 19.7565 0 24H4.8Z" fill="#6C3987"/>
<path fill-rule="evenodd" clip-rule="evenodd" d="M4.8 24C4.79923 21.9415 5.36578 19.9226 6.43743 18.1651C7.50908 16.4075 9.04436 14.9793 10.8747 14.0373L8.67733 9.77066C6.06322 11.1162 3.87041 13.1561 2.33965 15.6663C0.808893 18.1765 -0.000615516 21.0599 3.51147e-07 24H4.8Z" fill="#6C3987"/>
</svg>
